<?xml version="1.0" encoding="utf-8"?>
<!-- Generator: Adobe Illustrator 26.3.1, SVG Export Plug-In . SVG Version: 6.00 Build 0)  -->
<svg version="1.1" id="Layer_1" xmlns="http://www.w3.org/2000/svg" xmlns:xlink="http://www.w3.org/1999/xlink" x="0px" y="0px"
	 viewBox="0 0 1093 1745" style="enable-background:new 0 0 1093 1745;" xml:space="preserve">
<style type="text/css">
	.st0{fill-rule:evenodd;clip-rule:evenodd;fill:#ED1C24;stroke:#000000;stroke-width:37;stroke-miterlimit:10;}
	.st1{fill-rule:evenodd;clip-rule:evenodd;}
</style>
<path class="st0" d="M546.9,1714.6c-38.8-190.3-107.1-348.7-189.9-495.4c-61.4-108.9-132.5-209.4-198.4-314.9
	c-22-35.2-40.9-72.5-62-109.1C54.4,722,20.1,637.2,22.3,527.2c2.1-107.5,33.2-193.7,78-264.2c73.7-115.9,197.2-211,362.9-236
	C598.7,6.7,725.7,41.2,815.8,93.8c73.6,43,130.6,100.5,173.9,168.3c45.2,70.7,76.4,154.3,79,263.2c1.3,55.8-7.8,107.5-20.7,150.4
	c-13,43.4-34,79.7-52.6,118.5c-36.4,75.7-82.1,145-127.9,214.3C731,1215.2,603,1425.9,546.9,1714.6L546.9,1714.6z"/>
<circle class="st1" cx="549.6" cy="495" r="183.3"/>
</svg>
